<svg width="547" height="183" viewBox="0 0 547 183" fill="none" xmlns="http://www.w3.org/2000/svg">
<g clip-path="url(#clip0_1_5)">
<path d="M81.93 106.52C85.27 106.52 87.99 103.82 88 100.48V6.06C88 2.72 85.29 0 81.94 0C78.59 0 75.88 2.71 75.88 6.06V100.48C75.89 103.81 78.59 106.51 81.93 106.52Z" fill="#6B3DA7"/>
<path d="M163.86 100.88C163.93 70.09 146.67 41.88 119.23 27.93C116.2 26.5 112.59 27.8 111.17 30.83C109.81 33.72 110.92 37.17 113.71 38.71C148.03 56.25 161.64 98.3 144.1 132.62C126.56 166.94 84.51 180.55 50.19 163.01C15.86 145.47 2.26 103.42 19.8 69.1C26.48 56.03 37.11 45.4 50.19 38.71C53.19 37.24 54.44 33.61 52.96 30.6C51.49 27.6 47.86 26.35 44.85 27.83C44.78 27.86 44.72 27.9 44.66 27.93C4.37 48.52 -11.6 97.87 8.99 138.16C29.58 178.45 78.93 194.41 119.22 173.82C146.62 159.82 163.86 131.64 163.86 100.87V100.88Z" fill="#6B3DA7"/>
<path d="M206.07 60.39V60.26C205.95 47.52 216.17 37.09 228.91 36.97C229.16 36.97 229.41 36.97 229.67 36.97C243.51 36.97 253.15 47.46 253.15 60.13V60.26C253.15 72.93 243.38 83.55 229.54 83.55C215.7 83.55 206.07 73.06 206.07 60.39ZM244.85 60.39V60.26C244.85 51.52 238.48 44.29 229.54 44.29C220.6 44.29 214.37 51.43 214.37 60.17V60.3C214.37 69.04 220.74 76.27 229.67 76.27C238.6 76.27 244.85 69.13 244.85 60.39Z" fill="#6B3DA7"/>
<path d="M257.97 52.35C257.93 50.23 259.61 48.47 261.73 48.43C261.76 48.43 261.8 48.43 261.83 48.43C263.99 48.42 265.74 50.16 265.75 52.31C265.75 52.32 265.75 52.34 265.75 52.35V54.03C267.94 50.88 271.09 48.11 276.36 48.11C284.02 48.11 288.45 53.26 288.45 61.09V79.25C288.49 81.34 286.82 83.07 284.73 83.11C284.7 83.11 284.67 83.11 284.64 83.11C282.52 83.19 280.73 81.54 280.65 79.42C280.65 79.36 280.65 79.3 280.65 79.25V63.49C280.65 58.22 278.01 55.19 273.38 55.19C268.75 55.19 265.72 58.34 265.72 63.61V79.24C265.72 81.39 263.97 83.13 261.82 83.13C259.68 83.13 257.94 81.39 257.93 79.24L257.96 52.35H257.97Z" fill="#6B3DA7"/>
<path d="M297.47 41.74C297.43 39.57 299.16 37.79 301.32 37.75C301.37 37.75 301.41 37.75 301.46 37.75H314.26C328.41 37.75 338.22 47.46 338.22 60.13V60.26C338.22 72.93 328.45 82.77 314.26 82.77H301.46C299.29 82.81 297.51 81.08 297.47 78.92C297.47 78.87 297.47 78.83 297.47 78.78V41.75V41.74ZM314.26 75.58C323.71 75.58 329.89 69.21 329.89 60.4V60.27C329.89 51.46 323.71 44.96 314.26 44.96H305.39V75.58H314.26Z" fill="#6B3DA7"/>
<path d="M359.87 83.51C350.03 83.51 342.44 76.36 342.44 65.88V65.75C342.44 56.04 349.32 48.06 359.03 48.06C369.84 48.06 375.18 56.93 375.18 64.79C375.24 66.8 373.66 68.47 371.66 68.53C371.6 68.53 371.55 68.53 371.49 68.53H350.22C351.06 74.06 354.98 77.15 360 77.15C362.95 77.16 365.81 76.1 368.04 74.16C368.59 73.68 369.31 73.43 370.04 73.45C371.73 73.44 373.11 74.8 373.13 76.49C373.13 76.53 373.13 76.56 373.13 76.6C373.13 77.5 372.77 78.35 372.13 78.99C368.79 82.02 364.39 83.64 359.88 83.5L359.87 83.51ZM367.58 63.38C367.07 58.39 364.11 54.4 358.97 54.4C354.21 54.4 350.86 58.06 350.16 63.38H367.59H367.58Z" fill="#6B3DA7"/>
<path d="M380.58 52.35C380.54 50.23 382.22 48.47 384.34 48.43C384.38 48.43 384.42 48.43 384.46 48.43C386.62 48.42 388.37 50.16 388.38 52.31C388.38 52.32 388.38 52.34 388.38 52.35V53.97C390.57 50.98 393.53 48.11 398.73 48.11C403.01 47.92 407 50.26 408.9 54.1C411.47 50.31 415.77 48.06 420.35 48.11C427.75 48.11 432.25 52.81 432.25 61.09V79.25C432.29 81.34 430.62 83.07 428.53 83.11C428.48 83.11 428.43 83.11 428.38 83.11C426.26 83.15 424.5 81.47 424.46 79.35C424.46 79.32 424.46 79.28 424.46 79.25V63.49C424.46 58.09 421.95 55.19 417.57 55.19C413.19 55.19 410.3 58.18 410.3 63.61V79.24C410.19 81.39 408.36 83.04 406.22 82.93C404.22 82.83 402.63 81.23 402.53 79.24V63.42C402.53 58.14 399.95 55.18 395.64 55.18C391.33 55.18 388.37 58.39 388.37 63.6V79.23C388.37 81.38 386.62 83.12 384.47 83.12C382.33 83.12 380.59 81.38 380.58 79.23V52.34V52.35Z" fill="#6B3DA7"/>
<path d="M436.87 73V72.87C436.87 65.53 442.6 61.89 450.89 61.89C453.99 61.86 457.08 62.34 460.02 63.3V62.55C460.02 57.72 457.03 55.14 451.6 55.14C449.03 55.11 446.47 55.57 444.07 56.5C443.67 56.62 443.26 56.69 442.84 56.69C441.05 56.71 439.59 55.28 439.57 53.5C439.57 53.5 439.57 53.49 439.57 53.48C439.59 52.12 440.42 50.9 441.69 50.4C445.19 49.03 448.92 48.35 452.67 48.4C457.75 48.4 461.54 49.75 463.93 52.19C466.32 54.63 467.59 58.24 467.59 62.67V79.37C467.6 81.42 465.95 83.09 463.9 83.1C463.87 83.1 463.83 83.1 463.8 83.1C461.87 83.26 460.17 81.82 460.01 79.88C460.01 79.86 460.01 79.83 460.01 79.81V78.51C457.29 81.79 453.2 83.64 448.94 83.5C442.53 83.5 436.87 79.81 436.87 72.99V73ZM460.16 70.54V68.24C457.69 67.33 455.08 66.87 452.44 66.89C447.45 66.89 444.45 69.01 444.45 72.55V72.68C444.45 75.95 447.34 77.82 451.07 77.82C456.23 77.82 460.15 74.87 460.15 70.53L460.16 70.54Z" fill="#6B3DA7"/>
<path d="M474.3 52.35C474.26 50.23 475.94 48.47 478.06 48.43C478.09 48.43 478.12 48.43 478.15 48.43C480.31 48.41 482.07 50.15 482.08 52.3C482.08 52.32 482.08 52.33 482.08 52.35V54.03C484.27 50.88 487.41 48.11 492.69 48.11C500.35 48.11 504.78 53.26 504.78 61.09V79.25C504.82 81.34 503.15 83.07 501.06 83.11C501.02 83.11 500.97 83.11 500.93 83.11C498.8 83.15 497.04 81.47 497 79.34C497 79.31 497 79.28 497 79.25V63.49C497 58.22 494.36 55.19 489.73 55.19C485.1 55.19 482.08 58.34 482.08 63.61V79.24C482.08 81.39 480.33 83.13 478.18 83.13C476.04 83.13 474.3 81.39 474.29 79.24V52.35H474.3Z" fill="#6B3DA7"/>
<path d="M546.29 79.24C546.29 81.39 544.54 83.13 542.39 83.13C540.25 83.13 538.51 81.39 538.5 79.24V77.11C535.99 80.65 532.45 83.48 526.92 83.48C518.93 83.48 511.17 77.11 511.17 65.86V65.73C511.17 54.47 518.82 48.1 526.92 48.1C531.53 48.05 535.87 50.29 538.5 54.09V39.36C538.5 37.21 540.25 35.47 542.4 35.47C544.54 35.47 546.28 37.21 546.29 39.36V79.24ZM519.02 65.73V65.86C519.02 72.42 523.52 76.73 528.79 76.73C534.06 76.73 538.63 72.35 538.63 65.86V65.73C538.63 59.16 534 54.86 528.79 54.86C523.58 54.86 519.02 58.97 519.02 65.73Z" fill="#6B3DA7"/>
<path d="M208.05 116.45C208.02 114.28 209.75 112.49 211.92 112.46C211.96 112.46 212 112.46 212.04 112.46H225.81C236.36 112.46 242.92 118.45 242.92 127.51V127.64C242.92 137.73 234.81 143.01 224.95 143.01H215.97V153.88C215.68 156.07 213.67 157.6 211.49 157.31C209.7 157.07 208.3 155.67 208.06 153.88V116.45H208.05ZM225.16 135.88C231.15 135.88 234.87 132.54 234.87 127.83V127.7C234.87 122.43 231.08 119.71 225.16 119.71H215.97V135.92L225.16 135.87V135.88Z" fill="#6B3DA7"/>
<path d="M245.94 147.67V147.54C245.94 140.21 251.67 136.61 259.91 136.61C263.01 136.58 266.1 137.06 269.04 138.03V137.19C269.04 132.37 266.05 129.79 260.62 129.79C258.05 129.75 255.49 130.21 253.09 131.14C252.69 131.26 252.28 131.33 251.86 131.34C250.07 131.36 248.6 129.92 248.59 128.13C248.59 128.13 248.59 128.13 248.59 128.12C248.61 126.76 249.45 125.55 250.71 125.04C254.21 123.68 257.94 123 261.69 123.04C266.77 123.04 270.56 124.4 272.95 126.83C275.34 129.26 276.65 132.88 276.65 137.32V154.04C276.66 156.09 275.01 157.76 272.96 157.77C272.93 157.77 272.89 157.77 272.86 157.77C270.92 157.93 269.22 156.48 269.06 154.54C269.06 154.52 269.06 154.5 269.06 154.48V153.19C266.34 156.48 262.26 158.32 258 158.18C251.6 158.15 245.94 154.48 245.94 147.66V147.67ZM269.23 145.22V142.9C266.76 141.99 264.15 141.53 261.51 141.55C256.52 141.55 253.52 143.68 253.52 147.21V147.39C253.52 150.67 256.41 152.54 260.14 152.54C265.3 152.49 269.22 149.53 269.22 145.21L269.23 145.22Z" fill="#6B3DA7"/>
<path d="M283.26 114.35C283.26 112.03 285.19 110.56 287.7 110.56C290.21 110.56 292.13 112.04 292.13 114.35V114.74C292.13 117.06 290.2 118.6 287.7 118.6C285.2 118.6 283.26 117.05 283.26 114.74V114.35ZM283.84 127.02C283.8 124.9 285.48 123.14 287.6 123.1C287.63 123.1 287.67 123.1 287.7 123.1C289.86 123.09 291.61 124.83 291.62 126.98C291.62 126.99 291.62 127.01 291.62 127.02V153.9C291.62 156.05 289.87 157.79 287.72 157.79C285.58 157.79 283.84 156.05 283.83 153.9V127.02H283.84Z" fill="#6B3DA7"/>
<path d="M299.21 127.02C299.17 124.9 300.85 123.14 302.97 123.1C303 123.1 303.04 123.1 303.07 123.1C305.23 123.09 306.98 124.83 306.99 126.98C306.99 126.99 306.99 127.01 306.99 127.02V128.69C309.18 125.55 312.33 122.78 317.6 122.78C325.26 122.78 329.69 127.92 329.69 135.76V153.9C329.73 155.99 328.06 157.72 325.97 157.76C325.93 157.76 325.88 157.76 325.84 157.76C323.72 157.8 321.96 156.12 321.92 154C321.92 153.97 321.92 153.93 321.92 153.9V138.16C321.92 132.88 319.28 129.85 314.65 129.85C310.02 129.85 306.99 133 306.99 138.27V153.9C306.99 156.05 305.24 157.79 303.09 157.79C300.95 157.79 299.21 156.05 299.2 153.9V127.02H299.21Z" fill="#6B3DA7"/>
<path d="M339.41 148.06V130.18H338.12C336.27 130.08 334.85 128.5 334.95 126.65C335.04 124.94 336.41 123.58 338.12 123.48H339.41V117.69C339.41 115.54 341.16 113.8 343.31 113.8C345.45 113.8 347.19 115.54 347.2 117.69V123.44H353.31C355.16 123.34 356.74 124.76 356.84 126.61C356.94 128.46 355.52 130.04 353.67 130.14C353.55 130.14 353.43 130.14 353.3 130.14H347.19V146.79C347.19 149.78 348.73 151.04 351.36 151.04C352.01 151.01 352.66 150.94 353.3 150.84C355.09 150.84 356.55 152.28 356.57 154.06C356.54 155.38 355.73 156.55 354.51 157.05C352.8 157.67 350.99 157.97 349.17 157.96C343.45 158.02 339.4 155.5 339.4 148.05L339.41 148.06Z" fill="#6B3DA7"/>
<path d="M377.56 158.22C367.72 158.22 360.13 151.08 360.13 140.59V140.47C360.13 130.76 367.02 122.78 376.72 122.78C387.53 122.78 392.87 131.65 392.87 139.5C392.92 141.51 391.33 143.18 389.32 143.23C389.28 143.23 389.25 143.23 389.21 143.23H367.92C368.75 148.76 372.68 151.84 377.69 151.84C380.65 151.84 383.5 150.78 385.74 148.85C386.29 148.37 387.01 148.12 387.74 148.14C389.43 148.12 390.82 149.48 390.84 151.17C390.84 151.21 390.84 151.25 390.84 151.29C390.84 152.18 390.47 153.04 389.84 153.67C386.49 156.72 382.1 158.35 377.57 158.21L377.56 158.22ZM385.28 138.08C384.76 133.09 381.81 129.1 376.66 129.1C371.9 129.1 368.55 132.77 367.85 138.08H385.29H385.28Z" fill="#6B3DA7"/>
<path d="M399.56 127.02C399.52 124.9 401.2 123.14 403.32 123.1C403.35 123.1 403.39 123.1 403.42 123.1C405.58 123.09 407.33 124.83 407.34 126.98C407.34 126.99 407.34 127.01 407.34 127.02V130.49C409.14 126.24 412.49 123.02 415.89 123.02C417.88 122.88 419.61 124.37 419.75 126.37C419.76 126.54 419.76 126.72 419.75 126.89C419.81 128.74 418.48 130.34 416.66 130.62C411.13 131.62 407.34 135.83 407.34 143.87V153.9C407.33 156.04 405.58 157.77 403.44 157.76C403.44 157.76 403.43 157.76 403.42 157.76C401.3 157.78 399.57 156.07 399.56 153.96C399.56 153.94 399.56 153.92 399.56 153.9V127.02Z" fill="#6B3DA7"/>
<path d="M422.27 154.03C421.32 153.47 420.75 152.44 420.79 151.33C420.77 149.61 422.14 148.2 423.86 148.18C423.89 148.18 423.91 148.18 423.94 148.18C424.53 148.18 425.1 148.34 425.61 148.63C428.48 150.66 431.88 151.8 435.39 151.91C438.73 151.91 440.66 150.49 440.66 148.24V148.11C440.66 145.47 437.06 144.58 433.07 143.36C428.08 141.94 422.46 139.89 422.46 133.38V133.25C422.46 126.81 427.79 122.89 434.55 122.89C438.28 122.95 441.94 123.89 445.23 125.66C446.37 126.22 447.1 127.38 447.1 128.65C447.1 130.39 445.7 131.8 443.97 131.81C443.94 131.81 443.91 131.81 443.88 131.81C443.35 131.82 442.83 131.69 442.36 131.43C439.91 130.06 437.18 129.27 434.37 129.11C431.38 129.11 429.61 130.53 429.61 132.45V132.58C429.61 135.09 433.27 136.11 437.27 137.4C442.26 138.95 447.81 141.19 447.81 147.31V147.39C447.81 154.54 442.28 158.07 435.2 158.07C430.58 158.04 426.08 156.63 422.26 154.03H422.27Z" fill="#6B3DA7"/>
</g>
<defs>
<clipPath id="clip0_1_5">
<rect width="546.29" height="182.82" fill="white"/>
</clipPath>
</defs>
</svg>
