<svg width="200" height="200" viewBox="0 0 200 200" fill="none" xmlns="http://www.w3.org/2000/svg">
<g clip-path="url(#clip0_45_4)">
<rect width="200" height="200" fill="white"/>
<path d="M100.001 116.23C103.588 116.23 106.51 113.272 106.52 109.612V6.16994C106.52 2.51078 103.61 -0.469131 100.012 -0.469131C96.4134 -0.469131 93.5026 2.49983 93.5026 6.16994V109.612C93.5134 113.261 96.4134 116.219 100.001 116.23Z" fill="#6B3DA7"/>
<path d="M188 110.051C188.075 76.3185 169.536 45.4128 140.064 30.1298C136.809 28.5631 132.932 29.9874 131.407 33.3069C129.946 36.4731 131.138 40.2527 134.135 41.9399C170.997 61.156 185.615 107.224 166.776 144.824C147.937 182.423 102.772 197.334 65.9096 178.118C29.0366 158.902 14.4292 112.833 33.2685 75.2339C40.4433 60.9149 51.8607 49.2692 65.9096 41.9399C69.1318 40.3294 70.4744 36.3526 68.8848 33.0549C67.3059 29.7683 63.407 28.3988 60.174 30.0202C60.0989 30.0531 60.0344 30.0969 59.97 30.1298C16.6955 52.6873 -0.457512 106.753 21.6577 150.893C43.7729 195.033 96.7785 212.518 140.053 189.961C169.483 174.623 188 143.75 188 110.04V110.051Z" fill="#6B3DA7"/>
</g>
<defs>
<clipPath id="clip0_45_4">
<rect width="200" height="200" fill="white"/>
</clipPath>
</defs>
</svg>
